<?xml version="1.0"?>
<svg style="enable-background:new 0 0 50 50;" version="1.1" viewBox="0 0 50 50" xml:space="preserve"
    xmlns="http://www.w3.org/2000/svg" xmlns:xlink="http://www.w3.org/1999/xlink"><g id="Layer_1"><path d="M44,19.09V1h-2v18.09c-2.833,0.478-5,2.942-5,5.91s2.167,5.431,5,5.91V49h2V30.91c2.833-0.478,5-2.942,5-5.91   S46.833,19.569,44,19.09z M43,29c-2.206,0-4-1.794-4-4s1.794-4,4-4s4,1.794,4,4S45.206,29,43,29z" fill="white"/><path d="M6,1v7.09C3.167,8.569,1,11.033,1,14s2.167,5.431,5,5.91V49h2V19.91c2.833-0.478,5-2.942,5-5.91s-2.167-5.431-5-5.91V1H6z    M11,14c0,2.206-1.794,4-4,4s-4-1.794-4-4s1.794-4,4-4S11,11.794,11,14z" fill="white"/><path d="M24,1v30.09c-2.833,0.478-5,2.942-5,5.91s2.167,5.431,5,5.91V49h2v-6.09c2.833-0.478,5-2.942,5-5.91s-2.167-5.431-5-5.91V1   H24z M29,37c0,2.206-1.794,4-4,4s-4-1.794-4-4s1.794-4,4-4S29,34.794,29,37z" fill="white"/></g><g/></svg>